Coordinates
version=1
nRows=65
nColumns=12
inDegrees=yes

Units are S.I. units (second, meters, Newtons, ...)
Angles are in degrees

endheader
time	SC_y	SC_z	SC_x	AC_y	AC_z	AC_x	GH_y	GH_z	GH_yy	EL_x	PS_y
       0.0              -47.18          9.897          48.19          44.63          1.915         -2.336           26.2          9.905          147.8          67.05          155.5
   0.02769              -47.18          9.898          48.19          44.63          1.912         -2.337          26.22          9.903          147.8          67.04          155.5
   0.05538              -47.18          9.898          48.19          44.63          1.909         -2.338          26.23            9.9          147.8          67.04          155.5
   0.08307              -47.17          9.899          48.19          44.63          1.906          -2.34          26.24          9.897          147.7          67.03          155.5
    0.1108              -47.17            9.9           48.2          44.63          1.902         -2.341          26.26          9.894          147.7          67.03          155.5
    0.1385              -47.16            9.9           48.2          44.63          1.898         -2.342          26.28          9.891          147.6          67.02          155.5
    0.1661              -47.16          9.901           48.2          44.63          1.894         -2.344          26.29          9.888          147.5          67.02          155.4
    0.1938              -47.15          9.902          48.21          44.63           1.89         -2.345          26.31          9.884          147.5          67.01          155.4
    0.2215              -47.15          9.903          48.21          44.63          1.885         -2.347          26.33           9.88          147.4          67.01          155.4
    0.2492              -47.14          9.904          48.22          44.63           1.88         -2.349          26.35          9.876          147.3           67.0          155.4
    0.2769              -47.13          9.905          48.22          44.63          1.875         -2.351          26.38          9.871          147.3          66.99          155.4
    0.3046              -47.13          9.906          48.23          44.63          1.869         -2.353           26.4          9.866          147.2          66.99          155.4
    0.3323              -47.12          9.907          48.23          44.63          1.863         -2.355          26.43          9.861          147.1          66.98          155.4
      0.36              -47.11          9.909          48.24          44.63          1.856         -2.357          26.46          9.855          147.0          66.97          155.4
    0.3877               -47.1           9.91          48.24          44.63          1.849          -2.36          26.49          9.849          146.9          66.96          155.3
    0.4154              -47.09          9.911          48.25          44.62          1.841         -2.363          26.52          9.842          146.8          66.95          155.3
    0.4431              -47.08          9.913          48.26          44.62          1.832         -2.366          26.56          9.835          146.7          66.94          155.3
    0.4707              -47.07          9.915          48.27          44.62          1.823         -2.369           26.6          9.827          146.5          66.92          155.3
    0.4984              -47.06          9.917          48.28          44.62          1.813         -2.373          26.64          9.818          146.4          66.91          155.3
    0.5261              -47.04          9.919          48.29          44.62          1.802         -2.377          26.69          9.809          146.2           66.9          155.2
    0.5538              -47.03          9.921           48.3          44.62           1.79         -2.381          26.74          9.799          146.0          66.88          155.2
    0.5815              -47.01          9.924          48.31          44.62          1.776         -2.386           26.8          9.787          145.8          66.86          155.2
    0.6092              -46.99          9.927          48.32          44.62          1.761         -2.392          26.86          9.774          145.6          66.84          155.1
    0.6369              -46.97           9.93          48.34          44.62          1.745         -2.398          26.93           9.76          145.4          66.82          155.1
    0.6646              -46.95          9.933          48.35          44.62          1.726         -2.404          27.01          9.745          145.1           66.8          155.0
    0.6923              -46.93          9.937          48.37          44.61          1.706         -2.411           27.1          9.727          144.8          66.77          155.0
      0.72               -46.9          9.942          48.39          44.61          1.683          -2.42           27.2          9.708          144.5          66.74          154.9
    0.7476              -46.87          9.947          48.41          44.61          1.657         -2.429          27.31          9.686          144.1           66.7          154.9
    0.7753              -46.83          9.952          48.44          44.61          1.628         -2.439          27.43          9.661          143.7          66.67          154.8
     0.803              -46.79          9.958          48.47           44.6          1.595         -2.451          27.58          9.633          143.2          66.62          154.7
    0.8307              -46.74          9.966           48.5           44.6          1.557         -2.465          27.74          9.601          142.7          66.57          154.6
    0.8584              -46.69          9.974          48.54           44.6          1.514         -2.481          27.92          9.564          142.1          66.51          154.5
    0.8861              -46.63          9.983          48.58          44.59          1.464         -2.499          28.14          9.522          141.4          66.45          154.4
    0.9138              -46.56          9.994          48.63          44.59          1.406         -2.519          28.39          9.472          140.5          66.37          154.3
    0.9415              -46.47          10.01          48.69          44.58          1.338         -2.544          28.68          9.414          139.5          66.28          154.1
    0.9692              -46.37          10.02          48.76          44.58          1.258         -2.573          29.02          9.346          138.4          66.17          153.9
    0.9969              -46.26          10.04          48.85          44.57          1.163         -2.607          29.43          9.265          137.0          66.05          153.7
     1.025              -46.11          10.06          48.95          44.56          1.049         -2.648          29.92          9.168          135.4           65.9          153.5
     1.052              -45.94          10.09          49.07          44.55         0.9105         -2.698          30.51          9.051          133.4          65.71          153.1
      1.08              -45.74          10.12          49.22          44.54         0.7418         -2.758          31.23          8.907          131.0          65.49          152.7
     1.108              -45.48          10.16           49.4          44.52         0.5336         -2.833          32.13           8.73          128.0          65.21          152.2
     1.135              -45.16          10.21          49.63           44.5          0.274         -2.927          33.24          8.509          124.2          64.87          151.6
     1.163              -44.76          10.27          49.92          44.47       -0.05304         -3.045          34.64          8.231          119.5          64.43          150.9
     1.191              -44.24          10.35          50.29          44.44        -0.4688         -3.194          36.42          7.877          113.6          63.88          149.9
     1.218              -43.59          10.45          50.75           44.4         -1.001         -3.386          38.71          7.424          105.9          63.17          148.6
     1.246              -42.74          10.58          51.35          44.34         -1.684         -3.632          41.63          6.843          96.11          62.27          147.0
     1.274              -41.67          10.75          52.12          44.27         -2.556         -3.945          45.37          6.101          83.57          61.11          145.0
     1.301              -40.31          10.96          53.09          44.18         -3.653          -4.34          50.08          5.168           67.8          59.65          142.4
     1.329              -38.67          11.22          54.27          44.08         -4.989         -4.821          55.81          4.031          48.59          57.88          139.2
     1.357              -36.75          11.51          55.63          43.95         -6.539         -5.379          62.45          2.713          26.32          55.82          135.6
     1.385              -34.68          11.83          57.11          43.82         -8.216         -5.983          69.64          1.285          2.205          53.59          131.6
     1.412              -32.61          12.15          58.58          43.68         -9.894         -6.586          76.83        -0.1418         -21.91          51.37          127.7
      1.44               -30.7          12.45          59.95          43.56         -11.44         -7.144          83.47          -1.46         -44.18          49.31          124.0
     1.468              -29.05           12.7          61.12          43.45         -12.78         -7.625           89.2         -2.597         -63.39          47.53          120.9
     1.495               -27.7          12.91          62.09          43.36         -13.88          -8.02          93.91          -3.53         -79.16          46.08          118.3
     1.523              -26.63          13.08          62.86          43.29         -14.75         -8.334          97.65         -4.272          -91.7          44.92          116.2
     1.551              -25.78          13.21          63.46          43.24         -15.43          -8.58          100.6         -4.853         -101.5          44.01          114.6
     1.578              -25.13          13.31          63.93          43.19         -15.96         -8.771          102.9         -5.306         -109.2          43.31          113.4
     1.606              -24.61          13.39          64.29          43.16         -16.38         -8.921          104.6          -5.66         -115.1          42.75          112.4
     1.634              -24.21          13.45          64.58          43.13         -16.71         -9.039          106.0         -5.938         -119.8          42.32          111.6
     1.661              -23.89           13.5          64.81          43.11         -16.97         -9.132          107.2         -6.159         -123.6          41.97          111.0
     1.689              -23.63          13.54          64.99           43.1         -17.17         -9.207          108.0         -6.336         -126.6           41.7          110.5
     1.717              -23.42          13.58          65.14          43.08         -17.34         -9.268          108.8          -6.48         -129.0          41.47          110.1
     1.745              -23.25           13.6          65.26          43.07         -17.48         -9.317          109.4         -6.597         -131.0          41.29          109.8
     1.772              -23.11          13.62          65.36          43.06         -17.59         -9.358          109.9         -6.694         -132.6          41.14          109.5
